<svg viewBox="0 0 540 960" width="540" height="960" xmlns="http://www.w3.org/2000/svg" xmlns:xlink="http://www.w3.org/1999/xlink" version="1.1">
  <g transform="translate(540, 0)" fill-opacity="0.2">
    <path d="M0 540C-96 526.7 -191.9 513.5 -270 467.7C-348.1 421.8 -408.3 343.4 -450.3 260C-492.4 176.6 -516.2 88.3 -540 0L0 0Z" fill="#232745"></path>
    <path d="M0 405C-72 395.1 -143.9 385.1 -202.5 350.7C-261.1 316.4 -306.2 257.5 -337.7 195C-369.3 132.5 -387.1 66.2 -405 0L0 0Z" fill="#96446e"></path>
    <path d="M0 270C-48 263.4 -96 256.7 -135 233.8C-174 210.9 -204.2 171.7 -225.2 130C-246.2 88.3 -258.1 44.2 -270 0L0 0Z" fill="#f17c53"></path>
    <path d="M0 135C-24 131.7 -48 128.4 -67.5 116.9C-87 105.5 -102.1 85.8 -112.6 65C-123.1 44.2 -129 22.1 -135 0L0 0Z" fill="#fbae3c"></path>
  </g>
  <g transform="translate(0, 960)" fill-opacity="0.2">
    <path d="M0 -540C94 -525.6 188 -511.2 270 -467.7C352 -424.1 422.1 -351.3 465.1 -268.5C508.1 -185.7 524 -92.8 540 0L0 0Z" fill="#232745"></path>
    <path d="M0 -405C70.5 -394.2 141 -383.4 202.5 -350.7C264 -318.1 316.5 -263.5 348.8 -201.4C381 -139.3 393 -69.6 405 0L0 0Z" fill="#96446e"></path>
    <path d="M0 -270C47 -262.8 94 -255.6 135 -233.8C176 -212 211 -175.7 232.5 -134.3C254 -92.8 262 -46.4 270 0L0 0Z" fill="#f17c53"></path>
    <path d="M0 -135C23.5 -131.4 47 -127.8 67.5 -116.9C88 -106 105.5 -87.8 116.3 -67.1C127 -46.4 131 -23.2 135 0L0 0Z" fill="#fbae3c"></path>
  </g>
</svg>